<?xml version="1.0" encoding="utf-8"?>
<!-- Generator: Adobe Illustrator 19.1.0, SVG Export Plug-In . SVG Version: 6.00 Build 0)  -->
<svg version="1.1" id="Layer_1" xmlns="http://www.w3.org/2000/svg" xmlns:xlink="http://www.w3.org/1999/xlink" x="0px" y="0px"
	 viewBox="0 0 400 400" enable-background="new 0 0 400 400" xml:space="preserve">
<g>
	<g>
		
			<polyline fill="none" stroke="#555555" stroke-width="18.8836" stroke-linecap="round" stroke-linejoin="round" stroke-miterlimit="10" points="
			50.029,317.129 177.786,374.453 358.09,292.906 		"/>
		
			<polyline fill="none" stroke="#555555" stroke-width="18.8836" stroke-linecap="round" stroke-linejoin="round" stroke-miterlimit="10" points="
			50.029,281.903 177.786,339.167 358.09,257.648 		"/>
		
			<path fill="none" stroke="#555555" stroke-width="18.8836" stroke-linecap="round" stroke-linejoin="round" stroke-miterlimit="10" d="
			M177.786,268.673C303.087,212.882,299.131,83.864,299.131,83.864L171.347,26.623c0,141.283-121.317,184.738-121.317,184.738
			L177.786,268.673z"/>
		
			<polyline fill="none" stroke="#555555" stroke-width="18.8836" stroke-linecap="round" stroke-linejoin="round" stroke-miterlimit="10" points="
			285.679,189.697 358.09,222.374 177.786,303.938 50.029,246.645 		"/>
	</g>
	
		<line fill="none" stroke="#555555" stroke-width="18.8836" stroke-linecap="round" stroke-miterlimit="10" x1="192.907" y1="62.871" x2="239.185" y2="83.569"/>
	
		<line fill="none" stroke="#555555" stroke-width="18.8836" stroke-linecap="round" stroke-miterlimit="10" x1="189.712" y1="86.386" x2="256.049" y2="116.16"/>
	
		<line fill="none" stroke="#555555" stroke-width="18.8836" stroke-linecap="round" stroke-miterlimit="10" x1="182.532" y1="107.164" x2="241.74" y2="133.72"/>
	
		<line fill="none" stroke="#555555" stroke-width="18.8836" stroke-linecap="round" stroke-miterlimit="10" x1="173.58" y1="127.941" x2="214.817" y2="146.445"/>
	
		<line fill="none" stroke="#555555" stroke-width="18.8836" stroke-linecap="round" stroke-miterlimit="10" x1="162.294" y1="147.501" x2="198.886" y2="163.949"/>
	
		<line fill="none" stroke="#555555" stroke-width="18.8836" stroke-linecap="round" stroke-miterlimit="10" x1="148.502" y1="165.722" x2="214.84" y2="195.452"/>
	
		<line fill="none" stroke="#555555" stroke-width="18.8836" stroke-linecap="round" stroke-miterlimit="10" x1="133.037" y1="182.981" x2="188.679" y2="207.944"/>
</g>
<rect fill="none" width="400" height="400"/>
</svg>
