<?xml version="1.0" encoding="utf-8"?>
<!-- Generator: Adobe Illustrator 19.1.0, SVG Export Plug-In . SVG Version: 6.00 Build 0)  -->
<svg version="1.1" id="Layer_1" xmlns="http://www.w3.org/2000/svg" xmlns:xlink="http://www.w3.org/1999/xlink" x="0px" y="0px"
	 viewBox="0 0 400 400" enable-background="new 0 0 400 400" xml:space="preserve">
<g>
	<path fill="none" stroke="#555555" stroke-width="18.7675" stroke-linejoin="round" stroke-miterlimit="10" d="M324.769,194.67
		l19.3-33.441l-19.3-11.144c1.997-9.104,2.122-18.25,0-27.978l19.3-11.169l-19.3-33.456L306.15,88.675
		c-6.846-6.313-16.917-11.193-23.369-14.026V52.362H244.15v22.288c-12.881,2.857-18.08,7.712-24.951,14.026l-19.748-11.193
		l-19.496,33.456l19.209,11.169c-1.98,9.04-2.202,18.17-0.049,27.978l-19.356,11.144l19.307,33.441l20.133-11.177
		c6.871,6.304,12.07,11.177,24.951,14.052v18.051h38.631v-18.051c6.452-2.875,16.523-7.748,23.418-14.052L324.769,194.67z"/>
	<path fill="none" stroke="#555555" stroke-width="18.7675" stroke-linejoin="round" stroke-miterlimit="10" d="M287.669,136.101
		c0,14.239-11.505,25.752-25.751,25.752c-14.199,0-25.76-11.513-25.76-25.752c0-14.198,11.561-25.784,25.76-25.784
		C276.164,110.316,287.669,121.903,287.669,136.101z"/>
	<path fill="none" stroke="#555555" stroke-width="18.7675" stroke-linejoin="round" stroke-miterlimit="10" d="M202.391,323.498
		l19.324-33.488l-19.324-11.146c1.996-9.063,2.169-18.226,0-27.944l19.324-11.151l-19.324-33.466l-18.627,11.193
		c-6.812-6.322-16.909-11.193-23.336-14.066v-18.446h-38.656v18.446c-12.881,2.897-18.063,7.744-24.899,14.066l-19.799-11.193
		l-19.497,33.466L76.81,250.92c-2.005,9.048-2.227,18.169-0.072,27.944L57.405,290.01l19.282,33.488l20.16-11.2
		c6.838,6.311,12.044,11.2,24.925,14.05v22.287h38.656v-22.287c6.428-2.85,16.524-7.738,23.385-14.05L202.391,323.498z"/>
	<path fill="none" stroke="#555555" stroke-width="18.7675" stroke-linejoin="round" stroke-miterlimit="10" d="M165.315,264.905
		c0,14.229-11.554,25.768-25.776,25.768c-14.199,0-25.76-11.539-25.76-25.768c0-14.239,11.562-25.776,25.76-25.776
		C153.762,239.129,165.315,250.666,165.315,264.905z"/>
</g>
<rect fill="none" width="400" height="400"/>
</svg>
