<?xml version="1.0" encoding="utf-8"?>
<!-- Generator: Adobe Illustrator 19.1.0, SVG Export Plug-In . SVG Version: 6.00 Build 0)  -->
<svg version="1.1" id="Layer_1" xmlns="http://www.w3.org/2000/svg" xmlns:xlink="http://www.w3.org/1999/xlink" x="0px" y="0px"
	 viewBox="0 0 400 400" enable-background="new 0 0 400 400" xml:space="preserve">
<g>
	<path fill="#555555" d="M101.737,31.787c4.18,0,7.6,3.42,7.6,7.601v43.93c0,4.256-3.268,7.601-7.6,7.601H79.392
		c-4.333,0-7.601-3.344-7.601-7.601v-43.93c0-4.18,3.42-7.601,7.601-7.601H101.737z M101.737,83.317v-43.93H79.392v43.93H101.737z"
		/>
	<path fill="#555555" d="M156.456,31.787c4.18,0,7.6,3.42,7.6,7.601v43.93c0,4.256-3.268,7.601-7.6,7.601H134.11
		c-4.333,0-7.601-3.344-7.601-7.601v-43.93c0-4.18,3.42-7.601,7.601-7.601H156.456z M156.456,83.317v-43.93H134.11v43.93H156.456z"
		/>
	<path fill="#555555" d="M211.175,31.787c4.181,0,7.601,3.42,7.601,7.601v43.93c0,4.256-3.269,7.601-7.601,7.601H188.83
		c-4.332,0-7.601-3.344-7.601-7.601v-43.93c0-4.18,3.42-7.601,7.601-7.601H211.175z M211.175,83.317v-43.93H188.83v43.93H211.175z"
		/>
	<path fill="#555555" d="M265.894,31.787c4.181,0,7.6,3.42,7.6,7.601v43.93c0,4.256-3.268,7.601-7.6,7.601h-22.345
		c-4.333,0-7.602-3.344-7.602-7.601v-43.93c0-4.18,3.421-7.601,7.602-7.601H265.894z M265.894,83.317v-43.93h-22.345v43.93H265.894z
		"/>
	<path fill="#555555" d="M320.612,31.787c4.181,0,7.601,3.42,7.601,7.601v43.93c0,4.256-3.269,7.601-7.601,7.601h-22.345
		c-4.333,0-7.602-3.344-7.602-7.601v-43.93c0-4.18,3.421-7.601,7.602-7.601H320.612z M320.612,83.317v-43.93h-22.345v43.93H320.612z
		"/>
	<path fill="#555555" d="M101.737,122.987c4.18,0,7.6,3.42,7.6,7.601v43.93c0,4.256-3.268,7.601-7.6,7.601H79.392
		c-4.333,0-7.601-3.344-7.601-7.601v-43.93c0-4.18,3.42-7.601,7.601-7.601H101.737z M101.737,174.518v-43.93H79.392v43.93H101.737z"
		/>
	<path fill="#555555" d="M156.456,122.987c4.18,0,7.6,3.42,7.6,7.601v43.93c0,4.256-3.268,7.601-7.6,7.601H134.11
		c-4.333,0-7.601-3.344-7.601-7.601v-43.93c0-4.18,3.42-7.601,7.601-7.601H156.456z M156.456,174.518v-43.93H134.11v43.93H156.456z"
		/>
	<path fill="#555555" d="M211.175,122.987c4.181,0,7.601,3.42,7.601,7.601v43.93c0,4.256-3.269,7.601-7.601,7.601H188.83
		c-4.332,0-7.601-3.344-7.601-7.601v-43.93c0-4.18,3.42-7.601,7.601-7.601H211.175z M211.175,174.518v-43.93H188.83v43.93H211.175z"
		/>
	<path fill="#555555" d="M265.894,122.987c4.181,0,7.6,3.42,7.6,7.601v43.93c0,4.256-3.268,7.601-7.6,7.601h-22.345
		c-4.333,0-7.602-3.344-7.602-7.601v-43.93c0-4.18,3.421-7.601,7.602-7.601H265.894z M265.894,174.518v-43.93h-22.345v43.93H265.894
		z"/>
	<path fill="#555555" d="M320.612,122.987c4.181,0,7.601,3.42,7.601,7.601v43.93c0,4.256-3.269,7.601-7.601,7.601h-22.345
		c-4.333,0-7.602-3.344-7.602-7.601v-43.93c0-4.18,3.421-7.601,7.602-7.601H320.612z M320.612,174.518v-43.93h-22.345v43.93H320.612
		z"/>
	<path fill="#555555" d="M101.737,214.188c4.18,0,7.6,3.42,7.6,7.601v43.93c0,4.257-3.268,7.601-7.6,7.601H79.392
		c-4.333,0-7.601-3.344-7.601-7.601v-43.93c0-4.181,3.42-7.601,7.601-7.601H101.737z M101.737,265.718v-43.93H79.392v43.93H101.737z
		"/>
	<path fill="#555555" d="M156.456,214.188c4.18,0,7.6,3.42,7.6,7.601v43.93c0,4.257-3.268,7.601-7.6,7.601H134.11
		c-4.333,0-7.601-3.344-7.601-7.601v-43.93c0-4.181,3.42-7.601,7.601-7.601H156.456z M156.456,265.718v-43.93H134.11v43.93H156.456z
		"/>
	<path fill="#555555" d="M211.175,214.188c4.181,0,7.601,3.42,7.601,7.601v43.93c0,4.257-3.269,7.601-7.601,7.601H188.83
		c-4.332,0-7.601-3.344-7.601-7.601v-43.93c0-4.181,3.42-7.601,7.601-7.601H211.175z M211.175,265.718v-43.93H188.83v43.93H211.175z
		"/>
	<path fill="#555555" d="M265.894,214.188c4.181,0,7.6,3.42,7.6,7.601v43.93c0,4.257-3.268,7.601-7.6,7.601h-22.345
		c-4.333,0-7.602-3.344-7.602-7.601v-43.93c0-4.181,3.421-7.601,7.602-7.601H265.894z M265.894,265.718v-43.93h-22.345v43.93
		H265.894z"/>
	<path fill="#555555" d="M320.612,214.188c4.181,0,7.601,3.42,7.601,7.601v43.93c0,4.257-3.269,7.601-7.601,7.601h-22.345
		c-4.333,0-7.602-3.344-7.602-7.601v-43.93c0-4.181,3.421-7.601,7.602-7.601H320.612z M320.612,265.718v-43.93h-22.345v43.93
		H320.612z"/>
	<path fill="#555555" d="M101.737,305.387c4.18,0,7.6,3.42,7.6,7.601v43.93c0,4.257-3.268,7.601-7.6,7.601H79.392
		c-4.333,0-7.601-3.344-7.601-7.601v-43.93c0-4.181,3.42-7.601,7.601-7.601H101.737z M101.737,356.917v-43.93H79.392v43.93H101.737z
		"/>
	<path fill="#555555" d="M156.456,305.387c4.18,0,7.6,3.42,7.6,7.601v43.93c0,4.257-3.268,7.601-7.6,7.601H134.11
		c-4.333,0-7.601-3.344-7.601-7.601v-43.93c0-4.181,3.42-7.601,7.601-7.601H156.456z M156.456,356.917v-43.93H134.11v43.93H156.456z
		"/>
	<path fill="#555555" d="M211.175,305.387c4.181,0,7.601,3.42,7.601,7.601v43.93c0,4.257-3.269,7.601-7.601,7.601H188.83
		c-4.332,0-7.601-3.344-7.601-7.601v-43.93c0-4.181,3.42-7.601,7.601-7.601H211.175z M211.175,356.917v-43.93H188.83v43.93H211.175z
		"/>
	<path fill="#555555" d="M265.894,305.387c4.181,0,7.6,3.42,7.6,7.601v43.93c0,4.257-3.268,7.601-7.6,7.601h-22.345
		c-4.333,0-7.602-3.344-7.602-7.601v-43.93c0-4.181,3.421-7.601,7.602-7.601H265.894z M265.894,356.917v-43.93h-22.345v43.93
		H265.894z"/>
	<path fill="#555555" d="M320.612,305.387c4.181,0,7.601,3.42,7.601,7.601v43.93c0,4.257-3.269,7.601-7.601,7.601h-22.345
		c-4.333,0-7.602-3.344-7.602-7.601v-43.93c0-4.181,3.421-7.601,7.602-7.601H320.612z M320.612,356.917v-43.93h-22.345v43.93
		H320.612z"/>
</g>
<rect fill="none" width="400" height="400"/>
</svg>
