<?xml version="1.0" encoding="utf-8"?>
<!-- Generator: Adobe Illustrator 19.1.0, SVG Export Plug-In . SVG Version: 6.00 Build 0)  -->
<svg version="1.1" id="Layer_1" xmlns="http://www.w3.org/2000/svg" xmlns:xlink="http://www.w3.org/1999/xlink" x="0px" y="0px"
	 viewBox="0 0 400 400" enable-background="new 0 0 400 400" xml:space="preserve">
<g>
	<path fill-rule="evenodd" clip-rule="evenodd" fill="#555555" d="M321.884,216.377h-16.282c-4.479,0-8.141-3.656-8.141-8.141
		c0-4.481,3.662-8.143,8.141-8.143h16.282c4.476,0,8.142,3.661,8.142,8.143C330.025,212.721,326.359,216.377,321.884,216.377z
		 M286.105,136.808c-3.163,3.165-8.348,3.165-11.514,0c-3.164-3.164-3.164-8.349,0-11.512l11.514-11.513
		c3.164-3.165,8.347-3.165,11.512,0c3.166,3.163,3.166,8.349,0,11.513L286.105,136.808z M232.328,256.227v25.314h-65.134v-25.314
		c-19.384-11.289-32.566-32.057-32.566-56.1c0-35.969,29.163-65.132,65.132-65.132c35.97,0,65.135,29.163,65.135,65.132
		C264.895,224.17,251.709,244.938,232.328,256.227z M199.76,151.278c-26.937,0-48.849,21.912-48.849,48.849
		c0,17.397,9.152,33.105,24.481,42.027l8.085,4.705v9.367v9.033h32.568v-9.033v-9.367l8.086-4.705
		c15.326-8.922,24.48-24.63,24.48-42.027C248.61,173.19,226.697,151.278,199.76,151.278z M207.918,102.461
		c-4.468,0-8.125-3.66-8.125-8.141l-0.017-16.283c0-1.13,0.238-2.212,0.659-3.182c1.234-2.924,4.134-4.992,7.498-4.992
		c4.479,0,8.142,3.657,8.142,8.141v16.283c0,2.242-0.921,4.279-2.401,5.757C212.195,101.538,210.16,102.461,207.918,102.461z
		 M124.961,125.295l-11.514-11.513c-3.163-3.165-3.163-8.348,0-11.513c3.166-3.164,8.348-3.164,11.514,0l11.511,11.513
		c3.163,3.163,3.163,8.349,0,11.513C133.308,128.458,128.125,128.458,124.961,125.295z M93.984,200.127H77.701
		c-4.477,0-8.141-3.658-8.141-8.142c0-4.483,3.664-8.141,8.141-8.141h16.284c4.477,0,8.141,3.658,8.141,8.141
		C102.125,196.469,98.461,200.127,93.984,200.127z M232.328,314.107h-16.762c0.127,0.7,0.479,1.322,0.479,2.036
		c0,7.839-7.332,14.248-16.285,14.248c-8.951,0-16.283-6.409-16.283-14.248c0-0.714,0.35-1.336,0.477-2.036h-16.76v-16.282h65.134
		V314.107z"/>
</g>
<rect fill="none" width="400" height="400"/>
</svg>
