<?xml version="1.0" encoding="utf-8"?>
<!-- Generator: Adobe Illustrator 19.1.0, SVG Export Plug-In . SVG Version: 6.00 Build 0)  -->
<svg version="1.1" baseProfile="tiny" id="Layer_1" xmlns="http://www.w3.org/2000/svg" xmlns:xlink="http://www.w3.org/1999/xlink"
	 x="0px" y="0px" viewBox="0 0 200 40" xml:space="preserve">
<g>
	<path fill="#448CCB" d="M59,17.1c-0.4-1.3-1.2-1.5-1.6-1.5H46.6c-0.2,0-0.3,0.1-0.3,0.1l-0.1,0.1l-6.7,7.4l0,0H28.4
		c-0.1-0.1-0.1-0.3-0.2-0.4L28,22.5l0-0.1c0,0-0.1-0.1-0.1-0.3h10.6c0.6-0.3,1.1-0.5,1.6-0.7l5.6-6.2c0.3-0.4,0.5-0.9,0.5-1.4l0,0
		l-6.3,7c-0.4,0.4-1,0.7-1.5,0.7H27.8c0-0.1,0-0.2,0-0.4l0-0.3c0-0.1,0-0.1,0-0.2c0-0.1,0-0.1,0-0.2h10.8c0.6-0.3,1.1-0.5,1.6-0.7
		l5.6-6.2c0.3-0.4,0.5-0.9,0.5-1.4v0L40,19c-0.4,0.4-1,0.7-1.5,0.7H27.8c0-0.1,0-0.2,0-0.3l0.1-0.3c0-0.2,0.1-0.3,0.1-0.3l0.1-0.1
		h10.5c0.6,0,1.1-0.2,1.5-0.7l6.8-7.5v-0.1c0-0.2-0.2-0.2-0.2-0.2H35.8c-0.8,0-1.3,0.5-1.4,0.5l-6.9,6.5c-0.3,0.3-0.6,0.7-0.8,1.2
		c-0.2,0.6-0.3,1.4-0.3,2.2c0,0.8,0.1,1.6,0.3,2.2c0.4,1.3,1.2,1.5,1.6,1.5h10.8c0.2,0,0.3-0.1,0.3-0.1l0,0l6.7-7.4v0h11.1
		c0.1,0.1,0.1,0.3,0.2,0.4l0,0l0.1,0.3l0,0.1c0,0,0.1,0.1,0.1,0.3H47.3c-0.6,0.3-1.1,0.5-1.6,0.7L40,24.7c-0.3,0.4-0.5,0.9-0.5,1.4
		v0l6.3-7c0.4-0.4,1-0.7,1.5-0.7H58c0,0.1,0,0.2,0,0.4l0,0.3c0,0.1,0,0.1,0,0.2c0,0.1,0,0.1,0,0.2H47.3c-0.6,0.3-1.1,0.5-1.6,0.7
		L40,26.5c-0.3,0.4-0.5,0.9-0.5,1.4v0l6.3-7c0.4-0.4,1-0.7,1.5-0.7H58c0,0.1,0,0.2,0,0.3l-0.1,0.3c0,0.2-0.1,0.3-0.1,0.3l-0.1,0.1
		H47.3c-0.6,0-1.1,0.2-1.5,0.7l-6.8,7.5v0.1c0,0.2,0.2,0.2,0.2,0.2H50c0.8,0,1.3-0.5,1.4-0.5l6.9-6.5c0.3-0.3,0.6-0.7,0.8-1.2
		c0.2-0.6,0.3-1.4,0.3-2.2C59.3,18.5,59.2,17.7,59,17.1z"/>
	<g>
		<path fill="#448CCB" d="M70.4,23.7c0,0,1.7,1.6,3.8,1.6c1.2,0,2.2-0.6,2.2-1.9c0-2.7-7.2-2.3-7.2-7c0-2.5,2.2-4.5,5.1-4.5
			c3,0,4.6,1.6,4.6,1.6L77.7,16c0,0-1.5-1.3-3.4-1.3c-1.3,0-2.3,0.8-2.3,1.8c0,2.7,7.2,2.1,7.2,7c0,2.4-1.9,4.5-5.1,4.5
			c-3.4,0-5.3-2.1-5.3-2.1L70.4,23.7z"/>
		<path fill="#448CCB" d="M81.4,16.6h2.7v6.5c0,1.3,0.3,2.2,1.7,2.2c2,0,3.1-1.8,3.1-3.7v-5.1h2.7v11H89v-1.3c0-0.4,0-0.8,0-0.8h0
			c-0.5,1.1-1.9,2.3-3.8,2.3c-2.4,0-3.8-1.2-3.8-4.2V16.6z"/>
		<path fill="#448CCB" d="M94.4,12.3h2.7V17c0,0.5,0,0.9,0,0.9h0c0,0,1-1.6,3.3-1.6c3,0,4.9,2.4,4.9,5.8c0,3.5-2.1,5.8-5.1,5.8
			c-2.3,0-3.3-1.6-3.3-1.6h0c0,0,0,0.3,0,0.8v0.6h-2.6V12.3z M99.8,25.6c1.5,0,2.8-1.2,2.8-3.4c0-2.1-1.1-3.5-2.7-3.5
			c-1.4,0-2.8,1-2.8,3.5C97.1,23.9,98,25.6,99.8,25.6z"/>
		<path fill="#448CCB" d="M107.4,12.3h2.7v11.5c0,1.2,0.4,1.5,1.1,1.5c0.2,0,0.4,0,0.4,0v2.4c0,0-0.4,0.1-0.9,0.1
			c-1.5,0-3.4-0.4-3.4-3.5V12.3z"/>
		<path fill="#448CCB" d="M118.2,16.4c3.2,0,4.9,2.3,4.9,5.2c0,0.3-0.1,1.1-0.1,1.1h-7.6c0.2,1.9,1.7,2.9,3.3,2.9
			c1.8,0,3.2-1.2,3.2-1.2l1.1,2c0,0-1.7,1.6-4.4,1.6c-3.7,0-5.9-2.6-5.9-5.8C112.6,18.8,114.9,16.4,118.2,16.4z M120.3,20.8
			c0-1.5-1-2.3-2.2-2.3c-1.4,0-2.4,0.9-2.6,2.3H120.3z"/>
		<path fill="#448CCB" d="M129.6,16.4c2.4,0,3.2,1.4,3.2,1.4h0c0,0,0-0.3,0-0.6v-4.8h2.7v15.3H133v-0.9c0-0.4,0-0.7,0-0.7h0
			c0,0-0.9,1.9-3.5,1.9c-3,0-4.9-2.4-4.9-5.8C124.6,18.6,126.7,16.4,129.6,16.4z M130.1,25.6c1.4,0,2.8-1,2.8-3.5
			c0-1.7-0.9-3.4-2.7-3.4c-1.5,0-2.8,1.2-2.8,3.4C127.4,24.2,128.5,25.6,130.1,25.6z"/>
		<path fill="#448CCB" d="M142.6,29.9c1.7,0,3.1-0.7,3.1-2.7v-0.6c0-0.3,0-0.6,0-0.6h0c-0.6,1-1.6,1.5-3.1,1.5
			c-3.2,0-4.9-2.5-4.9-5.6c0-3,1.7-5.5,4.9-5.5c2.4,0,3.3,1.4,3.3,1.4h0.1c0,0,0-0.1,0-0.3v-0.8h2.6V27c0,3.8-2.9,5.2-5.8,5.2
			c-1.4,0-2.9-0.4-3.9-1l0.8-2.1C139.6,29.1,141,29.9,142.6,29.9z M145.8,21.9c0-2.5-1.2-3.2-2.7-3.2c-1.7,0-2.6,1.2-2.6,3.1
			c0,1.9,1,3.3,2.8,3.3C144.6,25.1,145.8,24.4,145.8,21.9z"/>
		<path fill="#448CCB" d="M156.2,16.4c3.2,0,4.9,2.3,4.9,5.2c0,0.3-0.1,1.1-0.1,1.1h-7.6c0.2,1.9,1.7,2.9,3.3,2.9
			c1.8,0,3.2-1.2,3.2-1.2l1.1,2c0,0-1.7,1.6-4.4,1.6c-3.7,0-5.9-2.6-5.9-5.8C150.6,18.8,152.9,16.4,156.2,16.4z M158.3,20.8
			c0-1.5-1-2.3-2.2-2.3c-1.4,0-2.4,0.9-2.6,2.3H158.3z"/>
		<path fill="#448CCB" d="M163.3,16.6h2.6v1.9c0,0.4,0,0.8,0,0.8h0c0.5-1.6,1.8-2.8,3.5-2.8c0.3,0,0.5,0,0.5,0v2.7c0,0-0.3,0-0.6,0
			c-1.2,0-2.5,0.7-3,2.3c-0.2,0.5-0.2,1.1-0.2,1.8v4.4h-2.7V16.6z"/>
	</g>
</g>
</svg>
